<svg width="1440" height="418" viewBox="0 0 1440 418" fill="none" xmlns="http://www.w3.org/2000/svg">
<path d="M0.15 333.85L0.375 249.625L2.025 249.4C3.45 249.175 3.75 249.475 3.75 251.05C3.75 252.325 4.125 253 4.95 253C5.85 253 6.075 253.525 5.85 255.25C5.625 256.525 5.775 257.5 6.075 257.5C6.375 257.5 6.75 256.75 6.9 255.85C7.05 254.725 7.725 254.05 8.775 253.9C10.05 253.675 10.275 253.975 9.975 255.175C9.675 256.45 10.125 256.975 12.075 257.8L14.625 258.925L15.75 253.9C16.725 249.775 17.175 248.8 18.525 248.65C20.025 248.425 20.1 248.5 19.05 253.15C17.85 258.85 17.775 260.725 18.75 260.125C19.2 259.9 19.5 258.85 19.5 257.8C19.5 256.675 19.95 256 20.625 256C21.225 256 21.75 255.7 21.75 255.25C21.75 254.2 26.025 254.275 26.4 255.4C26.625 255.925 27.45 255.775 28.875 254.8C30.075 254.05 30.825 253.825 30.525 254.35C30.075 254.95 30.45 255.25 31.575 255.25C32.85 255.25 33.075 255.625 32.85 257.125C32.625 258.1 32.775 258.775 33.075 258.55C33.45 258.325 33.75 257.5 33.75 256.675C33.75 255.925 34.275 255.25 34.875 255.25C35.475 255.25 36 254.8 36 254.2C36 253.6 36.525 252.925 37.2 252.7C38.925 252.025 39.15 252.1 38.7 253.6C37.425 258.1 37.425 259.75 38.55 259.75C39.375 259.75 40.05 258.625 40.65 256.45C41.25 254.125 41.85 253.3 42.6 253.525C43.275 253.825 43.5 254.725 43.35 256.075C43.125 257.275 43.275 258.25 43.575 258.25C43.875 258.25 44.25 257.5 44.4 256.6C44.55 255.7 45.075 254.875 45.6 254.65C46.2 254.5 46.5 255.475 46.5 258.025C46.575 261.55 48.3 265 50.175 265C50.625 265 52.8 264.175 54.975 263.2C58.875 261.475 59.25 261.475 64.95 262.375C68.775 262.975 71.175 263.05 71.775 262.6C73.05 261.625 76.2 262.225 75.9 263.425C75.825 263.95 76.125 264.25 76.65 264.1C77.175 263.875 77.7 263.05 77.85 262.15C78 261.25 78.375 260.5 78.675 260.5C79.05 260.5 79.725 257.8 80.25 254.5C80.775 251.2 81.45 248.5 81.825 248.5C82.2 248.5 82.5 247.825 82.5 247.075C82.5 245.8 84.525 244.3 85.2 244.975C85.35 245.125 85.2 246.775 84.9 248.65C84.3 251.8 84.3 252.025 85.725 251.65C87 251.35 87.15 251.5 86.7 253.225C86.325 254.875 86.475 255.1 87.45 254.725C88.425 254.35 88.575 253.675 88.2 251.425C87.9 249.625 88.05 248.5 88.5 248.5C88.875 248.5 89.25 247.675 89.25 246.625C89.25 245.05 89.625 244.75 91.575 244.75C93.75 244.75 93.825 244.6 93.375 242.575C93.15 241.3 93.225 240.175 93.675 239.875C94.125 239.65 94.5 238.45 94.5 237.175C94.5 235.75 94.875 235 95.625 235C96.3 235 96.75 234.325 96.75 233.2C96.75 231.475 96.75 231.475 99.375 232.6C101.25 233.5 102 234.325 102 235.525V237.25L103.5 235.75C104.325 234.925 105.3 234.25 105.675 234.25C106.05 234.25 106.5 233.575 106.725 232.75C106.95 231.7 107.775 231.25 109.05 231.25C110.25 231.25 111 230.8 111 230.125C111 229.525 111.525 229 112.125 229C112.725 229 113.25 229.525 113.25 230.125C113.25 230.725 113.625 231.25 114 231.25C114.45 231.25 114.75 231.775 114.75 232.375C114.75 232.975 115.125 233.5 115.5 233.5C115.95 233.5 116.25 234.175 116.25 234.925C116.25 235.75 116.55 236.575 116.925 236.8C117.75 237.325 118.5 234.775 118.5 231.4C118.5 227.875 120.3 228.7 120.75 232.45C121.125 234.925 121.2 235.15 121.65 233.575C122.475 230.725 124.125 232.15 124.05 235.675C124.05 237.325 124.275 238.75 124.65 238.75C125.025 238.75 125.1 239.05 124.875 239.5C124.65 239.875 124.35 241.375 124.2 242.875C124.05 244.975 124.275 245.5 125.4 245.5C126.975 245.5 127.2 247.225 125.775 248.65C124.575 249.85 124.5 259.075 125.625 259.975C126.075 260.275 126 260.725 125.4 261.1C124.875 261.475 124.65 262.3 124.95 262.975C125.25 263.8 125.025 264.25 124.425 264.25C123.9 264.25 123.675 264.475 123.975 264.7C124.8 265.6 129.75 263.425 129.75 262.15C129.75 261.025 129.9 261.025 130.5 262C131.475 263.5 131.475 253 130.5 250.45C129.9 248.725 130.05 248.35 132 247.375C134.175 246.25 134.25 246.25 135.825 248.65C137.1 250.75 137.25 251.875 136.875 256.375L136.5 261.625H141.525H146.625L146.925 259L147.3 256.375L147.75 259.375C148.125 261.4 148.35 259.675 148.425 253.975C148.5 243.625 150 241.6 150.075 251.65C150.15 255.475 150.45 259.45 150.75 260.5L151.35 262.375L151.425 260.35C151.5 257.65 153 257.575 153 260.2C153 262.075 153.15 262.15 156 261.775C159.225 261.325 159.375 261.4 158.25 263.5C157.725 264.55 157.875 264.925 158.925 265.225C160.125 265.525 160.35 264.85 160.8 258.325C161.025 254.35 161.25 249.175 161.25 246.85C161.25 244.525 161.55 241.75 162 240.7C162.45 239.5 162.45 238.675 161.925 238.375C161.175 237.85 161.7 236.5 162.675 236.5C162.975 236.5 164.7 237.7 166.425 239.2C170.55 242.725 173.25 248.725 173.25 254.2C173.25 257.725 173.4 258.25 174.75 258.25C177.075 258.25 176.55 260.2 173.7 262.375C171.525 264.025 171.075 264.85 170.85 268C170.775 270.1 170.85 271.75 171.15 271.75C171.45 271.75 171.45 272.95 171.225 274.45C170.775 277.075 170.85 277.15 172.575 276.625C173.55 276.4 175.125 275.35 176.025 274.3C177.075 273.175 177.75 272.875 177.975 273.475C178.275 274.075 178.425 274 178.425 273.325C178.5 272.5 178.725 272.575 179.55 273.625C180.975 275.575 183.375 274.6 182.25 272.5C181.8 271.675 181.725 271 182.1 271C182.475 271 182.775 270.475 182.775 269.875C182.775 269.275 182.475 268.75 182.1 268.75C181.8 268.75 181.5 268.225 181.5 267.625C181.5 267.025 181.8 266.5 182.175 266.5C182.475 266.5 182.7 265.6 182.55 264.55C182.475 263.425 182.625 261.85 183 260.95C184.875 256.075 185.55 252.7 184.725 252.475C183.6 252.1 184.35 250 185.625 250C186.225 250 186.975 248.275 187.575 245.725C188.775 240.175 189.6 238.525 190.95 239.05C191.625 239.275 192 238.975 192 238C192 237.175 192.525 236.5 193.125 236.5C194.325 236.5 194.475 237.025 194.325 240.625C194.25 242.5 194.325 242.65 195 241.6C195.45 240.85 196.35 240.25 196.875 240.25C197.475 240.25 198 239.725 198 239.125C198 238.525 198.525 238 199.125 238C199.725 238 200.25 237.7 200.25 237.25C200.25 236.875 200.625 236.5 201 236.5C201.45 236.5 201.75 237.25 201.75 238.225C201.75 239.425 201.975 239.65 202.425 238.825C203.25 237.475 205.8 238.375 205.275 239.8C205.05 240.4 205.35 241.075 205.95 241.3C207.6 241.9 207.75 241.9 207.75 240.625C207.75 240.025 208.125 239.5 208.65 239.5C209.1 239.5 210.15 238.975 210.9 238.225C212.175 237.1 212.25 237.1 212.25 238.225C212.25 240.175 215.1 239.8 215.475 237.85L215.775 236.125L216.375 237.85C216.975 239.725 219 240.1 219 238.375C219 237.775 219.375 237.25 219.75 237.25C220.2 237.25 220.5 237.925 220.5 238.75C220.5 239.575 221.175 240.625 221.925 241.15C223.05 241.825 223.2 242.275 222.6 243.025C222 243.85 222.075 243.925 223.2 243.475C225.9 242.5 226.65 241.075 226.2 238.375C225.9 236.8 226.05 235.675 226.575 235.3C228.075 234.4 228.75 236.725 228.825 243.625C228.825 247.375 229.125 251.05 229.5 251.875C229.875 252.7 230.175 252.925 230.175 252.475C230.25 251.95 230.625 251.5 231.075 251.5C231.6 251.5 231.75 252.325 231.525 253.75C231.225 255.175 231.375 256 231.9 256C232.425 256 232.575 254.125 232.35 249.85C232.05 246.25 232.125 244.75 232.5 246.25C232.875 248.2 233.1 246.925 233.25 241.375C233.4 234.7 233.55 234.25 234 237.625C234.375 239.725 234.675 243.55 234.75 246.25C234.9 250.45 235.8 255.625 236.25 254.5C236.325 254.275 236.55 249.775 236.7 244.375C237.075 233.275 237.45 231.025 238.725 231.475C239.325 231.625 239.775 235.15 240.075 242.8C240.375 248.875 240.75 253.975 240.9 254.2C241.125 254.35 241.5 251.95 241.8 248.725C242.1 245.5 242.85 239.95 243.525 236.35C244.65 230.425 244.95 229.75 246.45 229.75C247.35 229.75 248.25 229.3 248.475 228.85C248.775 228.1 249 228.1 249.825 228.85C250.65 229.6 250.65 230.05 249.9 231.25C247.95 234.4 249.15 234.4 252.225 231.4C254.4 229.225 256.35 228.025 258.225 227.725C261.6 227.2 261.75 227.8 258.825 229.375C254.625 231.475 252.375 236.35 253.275 241.225C253.575 242.8 254.25 243.325 256.275 243.7C257.625 244 258.975 244 259.2 243.775C260.025 242.95 261.825 228.25 261.9 221.725C261.975 216.175 262.2 214.825 263.175 214.525C263.85 214.375 265.125 211.975 266.175 208.9C267.15 205.9 268.575 202.975 269.325 202.3C270.45 201.25 270.3 202.15 268.5 207.475C266.925 211.825 266.1 216.025 265.725 220.825C265.275 227.275 265.35 227.725 266.625 227.2C267.825 226.75 267.9 227.05 267.45 229.525C267.225 231.1 266.775 234.55 266.55 237.25L266.175 242.125L267.525 238.45C268.95 234.625 271.425 232.375 270.45 235.825C269.325 240.025 269.1 241.75 269.85 241.75C270.225 241.75 270.975 238.375 271.5 234.25C272.25 228.25 272.625 226.9 273.375 227.5C273.9 227.95 275.25 228.1 276.3 227.8C278.625 227.275 278.625 227.2 277.125 237.625C275.775 247.075 275.775 247.375 277.2 248.8C277.95 249.55 278.175 250.6 277.875 251.65C277.425 253.3 277.425 253.3 278.925 251.5C279.75 250.45 280.5 249.1 280.5 248.5C280.5 247.9 281.625 246.85 282.975 246.175C284.25 245.5 285.525 244.375 285.675 243.55C285.825 242.8 286.2 241.975 286.5 241.75C286.8 241.525 287.475 237.175 287.925 232C288.375 226.825 289.125 219.7 289.65 216.175L290.475 209.725L288.3 205.675C287.025 203.425 285.6 200.875 285 199.975C283.725 198.025 284.475 196.9 286.125 198.25C288.075 199.825 292.5 209.575 292.5 212.275C292.5 213.85 292.95 214.975 293.625 215.2C295.125 215.8 295.05 216.7 293.325 219.1C292.425 220.525 291.825 223.15 291.45 227.5C291.15 231.025 290.775 235.375 290.625 237.25C290.475 239.125 290.475 240.025 290.7 239.35C290.925 238.525 291.825 238 292.95 238C294.525 238 295.2 237.25 297.15 232.75C299.175 228.1 299.7 227.5 301.5 227.5C303.45 227.5 303.6 227.275 304.2 222.85L304.875 218.125L305.1 222.775C305.325 227.2 305.4 227.425 307.35 227.65C309.15 227.875 309.45 228.325 310.425 232.6C311.475 236.95 311.625 237.25 313.65 237.25C315.45 237.25 315.75 237.475 315.375 238.675C315.075 239.725 315.525 240.325 317.25 241.075C318.45 241.675 319.5 242.5 319.5 242.875C319.5 243.325 320.475 244.525 321.75 245.5C322.95 246.55 323.925 247.9 324 248.5C324.15 250.975 325.95 252.25 329.55 252.25H333V249.25V246.325L338.475 246.1L343.875 245.875L344.1 241.6C344.325 237.925 344.55 237.25 345.75 237.25C347.175 237.25 350.25 233.65 350.25 232C350.25 230.875 353.25 228.325 354.6 228.25C355.125 228.25 355.725 227.275 355.95 226C356.325 224.35 356.85 223.75 358.05 223.75C360.075 223.675 362.25 222.025 362.25 220.45C362.25 219.625 362.925 219.25 364.425 219.25C366.45 219.25 366.75 218.8 369 213.25C371.325 207.4 371.475 207.25 373.95 207.25C376.425 207.25 376.5 207.175 376.5 204.25C376.5 202.6 376.875 201.25 377.25 201.25C377.7 201.25 378 202.6 378 204.25C378 207.025 378.15 207.25 380.175 207.25C382.275 207.25 382.425 207.475 383.775 213.1C385.05 218.425 385.35 218.875 387.225 219.1C388.5 219.25 389.25 219.775 389.25 220.525C389.25 221.95 391.35 223.675 393.225 223.75C393.9 223.75 394.5 224.275 394.5 224.95C394.5 226.375 398.175 230.05 398.85 229.375C399.15 229.15 398.85 228.25 398.325 227.35C397.425 225.925 397.5 225.625 398.85 224.575C399.75 223.9 400.8 222.475 401.175 221.35C402.075 218.95 403.5 218.575 403.5 220.675C403.5 221.575 404.175 222.25 405.375 222.55C407.775 223.15 408.75 222.625 408.75 220.75C408.75 219.85 409.2 219.475 410.1 219.625C410.775 219.775 411.6 219.925 411.975 219.925C412.275 220 412.5 221.35 412.5 223C412.5 224.65 412.725 226 412.95 226C413.175 226 414.375 225.025 415.5 223.825C417.525 221.8 417.675 221.2 417.9 215.05C418.05 211.375 418.425 208.15 418.725 207.925C419.025 207.7 419.925 203.35 420.675 198.175L422.1 188.875L422.175 198.025C422.25 203.05 422.55 207.325 422.925 207.55C423.3 207.775 423.45 208.675 423.225 209.5C422.925 210.625 423.225 211 424.275 211C425.025 211 426.225 211.975 426.975 213.175C428.1 215.05 428.1 215.425 427.125 216.25C426.375 216.85 426 218.575 426 221.425C426.075 224.425 426.225 225.25 426.75 224.425C427.2 223.675 428.1 223.3 429.3 223.525C430.8 223.825 431.1 223.525 431.4 221.35C431.625 220 432.225 217.3 432.75 215.35L433.8 211.825L430.5 208.9C427.95 206.65 427.5 205.9 428.4 205.525C429.15 205.3 430.8 206.125 432.825 207.85C437.025 211.45 440.25 218.425 440.25 224.125C440.25 227.725 440.4 228.25 441.75 228.25C442.65 228.25 443.25 228.775 443.25 229.6C443.25 230.5 443.55 230.35 444.225 229C445.125 227.35 445.05 226.9 443.85 225.325C443.1 224.35 442.5 223.225 442.5 222.925C442.5 221.65 445.8 222.25 447.525 223.9L449.25 225.475V223C449.25 221.65 449.475 220.75 449.775 221.05C450.075 221.35 450.225 222.925 450.075 224.5C449.925 227.05 450.075 227.5 451.35 227.5C452.475 227.5 452.775 227.125 452.475 226C452.175 224.875 452.475 224.5 453.6 224.5C454.8 224.5 455.175 225.175 455.625 228.025C456 230.5 456.3 231.175 456.825 230.425C457.2 229.825 457.5 228.475 457.5 227.35C457.5 225.775 457.8 225.4 458.775 225.775C459.675 226.15 459.825 226 459.375 225.25C458.925 224.5 459.075 224.35 459.975 224.725C460.725 224.95 461.25 224.875 461.25 224.5C461.25 224.05 461.775 223.75 462.375 223.75C462.975 223.75 463.5 223.075 463.5 222.25C463.5 221.05 464.025 220.75 465.75 220.75C467.925 220.75 468 220.675 468 217.075C468 212.95 469.725 211.15 470.55 214.525C470.85 215.5 471.75 217.075 472.575 217.975C473.55 219.025 473.925 220.225 473.625 221.275C473.4 222.25 473.55 223 474 223C474.45 223 474.825 220.525 474.9 217.225C475.05 211.825 475.05 211.75 475.275 215.8C475.5 218.275 476.025 220.675 476.7 221.275C477.6 222.25 477.75 221.65 477.75 216.775C477.75 210.475 478.2 208.75 479.7 208.75C480.45 208.75 480.75 207.85 480.75 205.75C480.75 204.175 482.25 172.3 484.125 135.1C486 97.825 487.35 66.1 487.05 64.6C486.675 62.05 486.825 61.75 488.175 61.75C489.075 61.75 489.75 61.45 489.75 61.075C489.75 60.7 493.2 60.25 497.475 60.1C505.125 59.8 511.125 60.85 512.4 62.8C513.225 64.075 513.675 60.4 514.125 46.75C514.35 39.55 514.725 29.8 515.025 25.225L515.475 16.75H518.25H521.1L520.65 21.775L520.275 26.8L522.375 25.15C524.925 23.125 525.525 23.125 526.125 25C526.35 25.825 527.1 26.5 527.7 26.5C528.3 26.5 528.75 26.875 528.75 27.25C528.75 27.7 529.275 28 529.875 28C530.55 28 531.15 26.95 531.45 25C531.75 22.975 532.425 21.925 533.4 21.55C534.15 21.325 535.575 19.6 536.475 17.8C537.675 15.325 538.5 14.5 539.775 14.5C541.275 14.5 541.5 14.125 541.5 11.8C541.5 10.225 541.8 9.325 542.25 9.625C542.7 9.925 543 8.34998 543 5.57498C543 1.29998 543.075 1 544.725 1C547.725 1 548.175 3.47502 547.725 16.675C547.425 24.85 547.5 28.75 548.025 28.75C548.475 28.75 549.075 27.925 549.3 26.875C550.05 24.025 551.25 24.625 551.25 27.925C551.25 30.625 551.4 30.85 553.875 31.3C555.375 31.6 556.35 32.125 556.125 32.5C555.9 32.875 556.65 33.4 557.775 33.7C558.9 33.925 560.85 34.45 562.05 34.825C563.25 35.2 564.375 35.35 564.525 35.2C564.675 35.05 564.975 33.25 565.275 31.075C565.725 27.25 565.725 27.25 568.35 27.25H570.975L570.3 31.225C570 33.325 569.7 39.175 569.7 44.05L569.625 52.975L573.225 54.025C575.925 54.775 576.75 55.375 576.6 56.35C576.45 57.25 575.475 57.7 573.525 57.85L570.75 58.075L573.525 61.45C575.625 63.925 577.35 65.125 580.275 66.025L584.25 67.3V70.9C584.25 74.125 584.1 74.5 582.6 74.5C577.575 74.575 576.075 76.45 578.325 79.825C579.225 81.1 579.75 83.5 579.9 86.95L580.125 92.125L583.35 92.8C585.075 93.175 586.8 93.25 587.025 92.95C587.325 92.65 587.7 90.025 587.85 87.175C588.075 83.05 588.45 81.7 589.575 81.025C590.4 80.5 591 79.525 591 78.85C591 78.1 591.375 77.5 591.75 77.5C592.2 77.5 592.5 78.175 592.5 79C592.5 79.825 592.875 80.5 593.25 80.5C593.7 80.5 594 79.525 594 78.25C594 77.05 594.375 76 594.75 76C595.2 76 595.5 76.975 595.5 78.175C595.5 79.45 595.8 80.65 596.25 80.875C596.7 81.1 597 84.55 597 88.6V95.875L599.625 97.6C601.05 98.5 602.7 99.25 603.3 99.25C603.825 99.25 604.725 99.775 605.25 100.375C605.775 100.975 606.675 101.5 607.2 101.5C607.8 101.5 608.25 102.025 608.25 102.625C608.25 103.225 608.625 103.75 609 103.75C609.45 103.75 609.75 105.25 609.75 107.05C609.75 110.35 609.75 110.425 612.6 110.65L615.375 110.875V122.5V134.125L618.6 134.8C621.45 135.4 621.825 135.7 621.375 137.05C621.15 137.95 620.7 143.95 620.475 150.4C620.1 160.975 620.175 162.25 621.225 162.25C621.975 162.25 622.275 162.625 622.05 163.375C621.675 164.275 622.05 164.425 623.85 164.05C626.4 163.525 628.125 164.725 628.575 167.125C628.95 169.075 630.75 169.45 630.75 167.65C630.75 165.55 631.5 163.75 632.4 163.75C632.85 163.75 633 164.725 632.85 166C632.625 167.2 632.775 168.25 633.15 168.25C633.45 168.25 633.75 167.575 633.75 166.75C633.75 164.275 635.175 165.1 635.7 167.875C636.15 170.275 636.375 170.5 638.775 170.5C641.4 170.5 641.475 170.425 641.025 167.875C640.725 165.925 640.875 165.25 641.7 165.25C642.375 165.25 642.75 166.075 642.75 167.5C642.75 168.775 643.275 169.975 644.1 170.425C645 171.025 645.15 171.4 644.475 171.775C644.025 172.15 643.425 174.025 643.125 176.05C642.6 179.5 642.6 179.65 644.1 178.825C645.375 178.15 645.525 177.475 645.225 175.075C644.85 172.225 644.925 172.075 647.625 170.95C649.2 170.275 650.7 169.75 651.075 169.75C651.45 169.75 651.9 171.4 652.2 173.5C652.5 175.675 653.1 177.25 653.625 177.25C654.15 177.25 655.725 178.075 657.15 179.05C659.175 180.4 661.35 180.925 665.925 181.375C672.825 181.975 673.5 182.575 673.5 188.575V191.5H669.075C664.5 191.5 662.475 192.475 665.325 193.375C666.15 193.675 668.025 193.675 669.375 193.45C671.7 193 672.075 193.15 673.125 195.325C674.1 197.2 674.7 197.575 676.125 197.2C677.475 196.825 678.15 197.125 678.825 198.4C679.725 200.05 679.8 199.975 680.7 197.275C681.45 195.25 681.45 193.9 680.925 192.4C680.325 190.75 680.325 190.525 681.075 191.275C681.6 191.8 682.875 192.25 683.85 192.25C685.575 192.25 685.65 192.025 685.2 189.25C684.975 187.6 685.05 186.25 685.425 186.25C686.475 186.25 687 183.025 686.1 181.975C685.65 181.375 685.575 181 686.1 181C686.475 181 686.775 179.875 686.7 178.6C686.625 177.25 687 175.675 687.525 175.15C688.05 174.625 688.5 173.275 688.5 172.15C688.5 171.025 688.875 169.6 689.325 169C689.925 168.175 690 168.775 689.7 171.4C689.475 173.5 689.625 175.15 690.075 175.375C690.525 175.675 690.6 176.2 690.075 176.725C689.7 177.25 689.55 178.6 689.625 179.875C689.775 181.075 689.475 182.575 689.025 183.175C688.35 184.075 688.35 184.15 689.1 183.7C689.625 183.4 690 183.55 690 184.075C690 184.525 690.45 185.35 691.05 185.8C691.8 186.4 691.95 187.6 691.575 190.525C691.125 193.6 691.275 194.725 692.175 195.625C693 196.45 693.3 198.1 693.075 202.3C692.925 207.925 693.825 211 695.775 211C696.375 211 696.75 212.05 696.75 213.7C696.75 215.5 697.05 216.25 697.65 216.1C698.925 215.65 699.675 211.225 699.675 204.1C699.75 198.4 699.825 198.25 701.55 198.25C702.6 198.25 703.575 198.55 703.8 198.925C704.475 200.05 709.05 199.3 709.875 197.95C710.475 196.975 710.325 196.45 709.275 195.625C708.525 195.1 708.15 194.5 708.525 194.275C709.425 193.675 714.975 192.7 716.25 192.85C717 192.925 717.075 192.85 716.4 192.55C715.95 192.325 715.65 191.8 715.95 191.425C716.175 191.05 715.725 190.75 714.975 190.75C713.925 190.75 713.85 190.6 714.6 190.075C715.35 189.625 715.2 189.325 713.775 188.95C712.8 188.725 711.75 187.825 711.525 187C711.15 185.575 711.375 185.425 713.85 185.65C716.175 185.875 716.625 186.175 716.55 187.6C716.55 188.875 716.925 189.25 718.425 189.25C719.475 189.25 721.725 190.075 723.375 191.125C725.625 192.475 727.425 192.925 730.65 193C732.975 193 735.15 193.375 735.375 193.75C736.125 194.95 740.7 194.575 742.575 193.15C743.55 192.4 747.375 190.975 750.975 190C755.175 188.875 757.8 187.825 758.1 187.075C758.775 185.125 759.9 184.75 765.6 184.75C768.675 184.75 771 184.45 771 184C771 183.625 770.7 183.25 770.25 183.25C769.425 183.25 769.275 179.35 769.95 176.65C770.4 175 770.7 174.925 776.55 175.15L782.625 175.375L782.85 179.65C783 182.275 782.775 184 782.325 184C781.8 184 781.575 189.175 781.575 199L781.65 214H785.625C790.2 214 790.05 214.225 790.95 205.225L791.475 199.75H797.25C801.3 199.75 803.25 199.45 803.475 198.85C803.7 198.1 805.05 198.325 809.025 199.6C811.875 200.5 814.425 201.25 814.725 201.25C815.025 201.25 815.25 200.05 815.25 198.625V196H818.925H822.6L823.35 191.725L824.025 187.375L824.175 191.35L824.25 195.25H827.625H831V188.875C831 185.125 830.7 182.5 830.25 182.5C829.425 182.5 829.275 178.6 829.95 175.9C830.4 174.25 830.775 174.175 836.175 174.4L841.875 174.625V178.975V183.25H850.65C855.45 183.25 859.875 183.475 860.55 183.7C861.225 183.925 861.75 184.975 861.75 185.95C861.75 188.575 867.45 191.725 870.975 191.125C872.7 190.75 874.35 191.05 875.85 191.8C879.15 193.525 882.9 193.3 886.95 191.125C888.9 190.075 891.15 189.25 891.975 189.25C893.025 189.25 893.325 188.875 893.025 187.75C892.5 185.725 893.775 185.125 894.825 186.85C895.575 188.05 896.1 188.125 898.95 187.525C901.35 186.925 902.25 186.4 902.4 185.2C902.55 183.925 903.225 183.55 905.775 183.4C908.775 183.175 908.925 183.025 909.375 180.175C909.9 177.325 912.075 175.825 911.85 178.525C911.625 181.6 912 182.5 913.725 182.5C915.375 182.5 915.45 182.275 915.15 177.625L914.85 172.675L920.7 172.9L926.625 173.125L926.85 177.85C927 181.225 926.775 182.575 926.1 182.65C925.575 182.725 928.875 182.95 933.375 183.175C941.25 183.625 941.625 183.7 941.85 185.275C942 186.475 942.6 187 943.725 187C944.625 187 947.55 187.675 950.25 188.5C956.1 190.3 959.325 190.375 962.25 188.875C964.575 187.675 966.975 188.2 967.425 190C967.875 192.025 968.1 203.125 967.65 203.8C967.425 204.175 967.125 206.2 966.975 208.3C966.825 210.325 966.375 212.425 966 212.875C965.55 213.4 966 213.775 967.5 213.85C969.15 214 969.975 213.55 970.95 211.825C971.625 210.625 972.675 209.8 973.125 209.95C974.325 210.4 976.05 208.3 975.525 206.95C975.3 206.425 975.45 205.6 975.9 205.15C976.275 204.775 976.875 199.75 977.25 193.975C977.55 188.275 977.85 184.9 977.85 186.4C978.15 193.75 981.15 207.175 982.95 209.5C985.05 212.2 985.65 214.075 984.675 215.2C983.925 216.1 984.225 216.25 986.475 216.25C989.1 216.25 990.15 215.5 990.525 213.325C990.6 212.35 991.725 211.375 993.15 210.85C993.45 210.7 993 207.25 992.175 203.2C990.975 197.2 990.825 195.625 991.65 195.175C995.025 193 998.55 196.45 999.975 203.2C1000.73 206.875 1001.03 207.25 1002.38 206.875C1003.2 206.575 1004.92 206.2 1006.27 205.975C1007.77 205.75 1008.75 205.075 1008.98 204.1C1009.2 203.35 1009.8 202.75 1010.4 202.9C1012.05 203.275 1017.75 201.1 1017.75 199.975C1017.75 198.85 1019.33 198.7 1020.38 199.675C1021.65 200.875 1028.1 201.85 1028.93 201.025C1029.45 200.5 1030.57 200.95 1032.52 202.525C1034.1 203.725 1036.57 204.925 1038.07 205.225C1040.55 205.6 1040.78 205.45 1040.48 204.175C1040.25 203.425 1040.47 202.75 1040.93 202.75C1042.35 202.75 1041.45 186.7 1039.95 184.375C1038.75 182.575 1038.83 182.5 1040.18 182.5C1041.53 182.5 1044 187 1044 189.625C1044 191.05 1044.9 191.5 1046.85 190.975C1047.98 190.75 1048.5 190 1048.5 188.8C1048.5 187.675 1048.95 187 1049.62 187C1050.22 187 1050.75 186.325 1050.75 185.5C1050.75 184.3 1051.28 184 1053.38 184H1056.07L1055.55 178.375C1055.18 174.55 1055.33 172.75 1055.85 172.75C1057.2 172.75 1057.65 174.025 1060.12 184.675C1062.22 193.675 1062.68 194.875 1064.1 195.1C1065.45 195.325 1065.75 194.95 1065.75 193.45C1065.75 191.8 1066.05 191.5 1068 191.5C1069.28 191.5 1070.25 191.8 1070.25 192.1C1070.25 192.4 1071.22 193 1072.43 193.45L1074.52 194.275L1074.9 203.35C1075.05 208.375 1075.42 212.65 1075.65 212.875C1076.17 213.4 1085.77 206.65 1085.4 206.05C1085.25 205.825 1086.07 204.625 1087.27 203.275L1089.38 200.875L1091.55 203.275C1092.68 204.7 1094.33 205.75 1095.23 205.75C1098.3 205.675 1099.35 204.1 1099.8 198.625C1100.1 195.7 1100.47 191.875 1100.7 190.15C1100.92 188.2 1100.7 186.4 1100.18 185.8C1099.12 184.525 1100.78 180.1 1104.07 175.3C1106.62 171.55 1108.88 170.2 1113.6 169.45C1116.38 169.075 1117.5 169.3 1121.4 171.4C1124.32 172.975 1126.12 174.475 1126.57 175.675C1126.95 176.725 1127.62 178.225 1128.07 178.975C1129.35 181.3 1129.8 187 1128.75 188.875C1127.18 191.8 1128.22 192.625 1130.77 190.45C1132.05 189.4 1133.25 188.5 1133.48 188.5C1133.62 188.5 1133.47 190.15 1133.02 192.175C1131.75 198.7 1133.47 201.25 1139.32 201.25C1142.47 201.25 1142.03 202.525 1138.43 203.5C1136.4 204.025 1135.5 204.7 1135.73 205.3C1135.95 205.9 1136.4 207.85 1136.62 209.8C1136.93 211.675 1137.45 213.25 1137.82 213.25C1138.2 213.25 1138.5 213.85 1138.5 214.675C1138.5 216.55 1140.45 221.05 1141.65 222.1C1143.45 223.6 1144.42 221.95 1144.65 217C1144.88 212.425 1144.95 212.125 1146.68 212.125C1148.33 212.125 1148.62 211.525 1150.35 204.25C1151.33 199.9 1152.3 196.3 1152.38 196.15C1152.53 196 1153.8 196.15 1155.3 196.375C1157.62 196.825 1158.07 197.35 1158.82 199.75C1159.57 202.225 1159.5 203.35 1157.93 207.625C1156.05 212.875 1156.35 213.925 1159.73 214C1160.4 214 1161 214.6 1161 215.35C1161 216.025 1162.58 217.975 1164.6 219.7L1168.12 222.775L1167.68 214.45C1167.08 204.25 1166.7 202.375 1163.62 195.25C1160.93 189.1 1159.5 181.525 1160.93 180.625C1162.43 179.725 1163.78 181.6 1164.3 185.125C1164.6 186.925 1165.95 191.2 1167.3 194.65C1168.72 198.1 1170.22 203.35 1170.75 206.35C1171.28 209.275 1172.02 211.75 1172.4 211.75C1172.7 211.75 1173 213.85 1173.07 216.475C1173.07 219.025 1173.3 220.675 1173.52 220.225C1173.67 219.7 1174.57 219.25 1175.32 219.25C1176.15 219.25 1176.68 219.55 1176.38 219.925C1176.15 220.375 1175.85 222.025 1175.7 223.675C1175.47 226.6 1175.55 226.75 1177.43 226.225C1179.83 225.7 1179.15 226.45 1181.85 221.125C1184.78 215.275 1186.58 213.625 1188.68 214.75C1190.25 215.575 1190.25 215.575 1187.62 220.75L1185 225.925L1187.1 225.625C1192.88 224.725 1200.07 224.575 1202.02 225.325C1204.35 226.225 1205.4 226.45 1210.73 227.2C1212.68 227.5 1214.47 228.025 1214.7 228.325C1215.45 229.6 1218.6 229.075 1218.9 227.65C1219.12 226.9 1221.08 225.475 1223.48 224.425L1227.75 222.625V219.175C1227.75 216.475 1227.38 215.425 1226.18 214.675L1224.6 213.625L1226.25 211.525C1227.15 210.4 1228.58 209.5 1229.55 209.5C1230.45 209.5 1231.57 209.125 1232.02 208.675C1233.15 207.55 1236.45 208.375 1237.05 209.95C1237.28 210.625 1237.65 213.55 1237.88 216.475C1238.47 224.575 1238.62 224.875 1242 226C1244.32 226.75 1245 227.35 1245 228.7C1245 230.05 1245.75 230.575 1249.73 231.85C1252.28 232.675 1258.8 235 1264.12 236.95C1272.75 240.1 1274.7 240.55 1281.23 240.775L1288.5 241.075V239.2C1288.5 238.15 1288.88 236.575 1289.32 235.6C1290.45 233.05 1288.35 216.7 1286.62 214.75C1285.43 213.4 1285.42 213.25 1286.77 211.45C1287.52 210.475 1288.95 209.5 1290 209.35C1291.35 209.2 1291.88 208.675 1291.88 207.475C1291.88 206.575 1292.18 205.6 1292.48 205.3C1292.78 205 1292.85 200.5 1292.62 195.325L1292.25 185.875L1294.12 194.5C1295.18 199.225 1296.38 203.95 1296.75 205C1297.2 206.05 1297.65 208.375 1297.8 210.25C1298.78 222.625 1299.22 224.725 1300.65 225.1C1301.55 225.325 1301.92 225.85 1301.7 226.525C1301.47 227.125 1301.25 227.8 1301.25 227.95C1301.25 228.1 1300.72 228.25 1300.12 228.25C1298.62 228.25 1298.7 230.8 1300.2 232.075C1300.95 232.675 1301.18 233.65 1300.88 234.775C1300.5 236.425 1300.65 236.5 1304.62 236.5C1309.8 236.5 1311.6 237.4 1312.95 240.625C1314.3 243.925 1314.3 244.75 1312.73 244.75C1312.05 244.75 1311.75 244.975 1311.98 245.275C1312.28 245.5 1311.82 246.175 1311 246.775C1309.88 247.525 1309.5 248.725 1309.5 250.975C1309.5 253.225 1309.28 253.825 1308.75 253C1308.15 252.1 1308 252.1 1307.62 253.15C1307.32 253.825 1307.25 255.625 1307.4 257.2L1307.62 260.125L1310.02 256.825C1311.38 255.025 1312.57 253.225 1312.65 252.85C1312.8 252.475 1316.03 252.925 1319.85 253.825C1323.68 254.65 1327.05 255.25 1327.2 255.025C1327.42 254.8 1327.05 252.925 1326.45 250.825C1325.32 247 1325.33 246.925 1326.98 246.25C1329.9 245.125 1331.1 247.525 1335 261.625C1335.68 264.25 1343.25 273.7 1343.25 271.975C1343.25 271.675 1341.9 266.65 1340.25 260.875C1337.4 250.825 1336.35 243.4 1338 244.375C1338.38 244.6 1338.75 246.1 1338.75 247.6C1338.75 251.35 1340.17 256.225 1341.45 256.975C1342.05 257.275 1342.5 257.95 1342.5 258.325C1342.5 259.675 1344.9 267.4 1345.2 267.1C1345.35 266.875 1344.45 261.55 1343.25 255.175C1341.97 248.8 1341 242.95 1341 242.125C1341 239.575 1342.12 238.525 1344.3 239.05C1345.8 239.425 1346.25 240.025 1346.25 241.6C1346.25 244.825 1351.12 266.65 1353.07 272.05L1354.88 276.925L1359.75 278.425C1366.65 280.525 1386.6 285.85 1389.68 286.375C1392.53 286.825 1395.22 286.225 1394.62 285.175C1394.4 284.8 1394.7 284.725 1395.38 284.95C1396.43 285.4 1396.43 285.55 1395.23 286.45C1394.48 286.975 1394.03 287.5 1394.25 287.5C1394.47 287.5 1395.9 287.725 1397.4 287.95C1399.88 288.325 1400.1 288.25 1399.73 286.75C1399.5 285.925 1398.15 284.275 1396.8 283.225C1393.65 280.9 1393.65 280.3 1396.5 279.85C1397.78 279.625 1398.75 279.775 1398.75 280.15C1398.75 280.45 1397.85 280.75 1396.73 280.75C1394.7 280.825 1394.7 280.825 1396.05 281.875C1396.8 282.475 1397.77 282.775 1398.15 282.55C1398.52 282.325 1398.68 282.55 1398.6 283.15C1398.45 283.675 1399.2 284.2 1400.1 284.35C1401.75 284.575 1401.82 284.425 1401.38 282.1C1401.07 280.75 1400.17 278.95 1399.27 278.2C1398 277.075 1397.93 276.85 1398.98 277.225C1399.65 277.525 1400.25 277.375 1400.25 277C1400.25 276.625 1398.3 275.725 1395.98 275.05C1393.58 274.375 1391.1 273.325 1390.5 272.725C1389.53 271.675 1389.52 271.675 1391.02 272.425C1391.92 272.875 1393.35 273.25 1394.25 273.25C1395.9 273.25 1395.9 273.25 1394.55 271.15C1393.58 269.725 1393.57 269.35 1394.4 270.025C1395 270.55 1395.75 270.775 1395.98 270.475C1396.28 270.25 1396.5 270.775 1396.5 271.675C1396.5 273.025 1396.8 273.325 1397.93 273.025C1398.68 272.875 1399.88 273.025 1400.55 273.4C1401.68 274 1401.75 273.7 1401.3 270.85C1400.85 267.775 1400.85 267.7 1402.12 269.125C1402.8 269.95 1403.18 270.175 1402.88 269.725C1402.57 269.05 1403.03 268.75 1404.3 268.75C1407 268.75 1407.38 267.475 1404.98 266.2L1402.88 265.075L1405.5 265C1406.93 265 1408.58 264.7 1409.1 264.325C1410.53 263.425 1406.93 262.6 1404.23 263.125L1402.12 263.575L1404 262.225C1405.05 261.475 1406.7 260.05 1407.75 259C1409.55 257.275 1409.55 257.125 1408.12 256.9C1407.3 256.675 1406.18 257.275 1405.35 258.175C1404.6 259.15 1402.88 259.975 1401.23 260.2L1398.38 260.575L1400.62 259.3C1403.47 257.725 1403.33 257.875 1403.55 256.3C1403.7 255.4 1404.68 254.725 1406.55 254.35C1408.12 253.975 1410.22 253.15 1411.2 252.325L1412.93 250.975L1411.12 250.15C1410 249.625 1409.1 249.55 1408.88 250C1408.65 250.45 1407.75 251.05 1407 251.5C1405.88 252.1 1405.58 252.025 1405.73 250.825C1405.8 249.925 1406.55 249.175 1407.75 248.875C1410.45 248.2 1411.42 247.15 1410.9 245.35C1410.67 244.225 1410.75 243.925 1411.43 244.3C1411.88 244.6 1412.1 245.2 1411.88 245.575C1411.2 246.55 1414.95 250 1416.68 250C1417.5 250 1418.4 250.3 1418.62 250.75C1418.85 251.125 1418.62 251.275 1418.02 251.05C1417.42 250.825 1416.68 250.975 1416.38 251.425C1416.07 251.95 1416.6 252.25 1417.65 252.25C1418.62 252.25 1419 252.475 1418.55 252.85C1417.95 253.225 1418.03 253.675 1418.85 254.5C1419.53 255.1 1420.2 255.55 1420.27 255.475C1420.42 255.325 1421.78 255.25 1423.35 255.325C1424.93 255.325 1425.68 255.55 1425 255.85C1424.4 256.15 1423.8 257.125 1423.73 258.025C1423.58 259.45 1423.8 259.6 1426.35 259.3L1429.12 259L1426.5 259.9L1423.88 260.8L1426.12 261.175C1427.4 261.475 1428.38 262.075 1428.38 262.75C1428.38 263.8 1433.18 266.8 1433.85 266.2C1434 266.05 1433.47 260.275 1432.8 253.375C1431.75 243.55 1431.6 240.625 1432.35 239.5C1433.48 237.625 1433.48 235.525 1432.35 227.65C1431.53 221.875 1431.23 221.2 1428.6 218.8C1425.15 215.725 1424.93 214 1427.93 214C1429.88 214 1430.18 213.625 1430.93 210.7C1431.38 208.825 1431.75 205.675 1431.75 203.65C1431.75 201.025 1432.12 199.6 1433.1 198.775C1435.35 196.75 1436.1 197.275 1435.8 200.725C1435.65 202.45 1435.35 206.05 1435.2 208.75C1434.75 214.825 1436.85 229.75 1438.2 229.75C1438.65 229.75 1439.33 230.275 1439.55 230.95C1439.78 231.625 1440 273.925 1440 325.075V418H720H0L0.15 333.85ZM1379.02 291.1C1380.97 287.125 1380.97 287.05 1374.52 285.25C1364.4 282.475 1358.1 280.675 1357.05 280.225C1355.55 279.625 1357.05 283.375 1359.23 285.7C1360.58 287.125 1361.62 287.5 1365.07 287.5H1369.27L1368.9 289.675C1368.6 292.075 1369.28 292.45 1375.2 292.675C1377.67 292.75 1378.42 292.45 1379.02 291.1ZM1392.38 290.5C1393.5 290.05 1392.9 289.75 1389.82 289.075C1385.32 288.1 1384.88 288.25 1385.62 290.425C1386 291.7 1386.53 291.85 1388.48 291.475C1389.83 291.25 1391.55 290.8 1392.38 290.5ZM1343.85 282.925C1343.18 280.9 1341 279.775 1341 281.425C1341 283.45 1342.58 285.925 1343.55 285.55C1344.38 285.25 1344.45 284.65 1343.85 282.925ZM1409.62 283.75C1409.85 283.75 1409.93 284.05 1409.62 284.425C1409.03 285.475 1413.52 284.05 1415.77 282.55C1416.82 281.875 1417.42 281.725 1417.2 282.175C1416.53 283.15 1418.93 283.3 1420.43 282.325C1421.4 281.725 1421.4 280.825 1420.2 275.725C1419.45 272.5 1418.7 269.65 1418.48 269.35C1418.33 269.05 1417.27 269.125 1416.15 269.575L1414.12 270.325L1415.77 268.6C1417.42 266.875 1417.5 263.5 1415.85 263.5C1415.48 263.5 1415.4 263.875 1415.62 264.325C1415.93 264.775 1415.47 265.3 1414.57 265.525C1413.67 265.75 1413 266.275 1413 266.65C1413 267.1 1412.4 267.25 1411.57 267.025C1409.92 266.65 1407.53 267.85 1408.12 268.825C1408.43 269.2 1408.95 269.35 1409.32 269.125C1410.53 268.3 1410.08 271.075 1408.73 272.35C1407.53 273.55 1407.53 273.55 1407.98 272.35C1408.58 270.7 1406.85 270.55 1405.5 272.125C1404.75 273.025 1404.82 273.25 1405.95 273.325C1407 273.325 1407.07 273.475 1406.25 273.775C1404.6 274.45 1404 275.575 1404 278.125C1404 279.4 1404.3 280 1404.6 279.55C1404.98 278.875 1405.43 278.95 1406.1 279.7C1407 280.675 1406.7 281.05 1405.35 280.825C1404.98 280.825 1404.75 281.125 1404.75 281.5C1404.75 281.95 1405.43 282.25 1406.25 282.25C1407.97 282.25 1408.2 283 1406.85 284.425C1406.03 285.25 1406.17 285.25 1407.52 284.575C1408.42 284.125 1409.32 283.75 1409.62 283.75ZM1433.48 280C1433.85 279.7 1433.4 278.05 1432.57 276.4C1430.55 272.425 1430.62 271.9 1432.88 270.85C1436.47 269.2 1434.6 266.5 1429.88 266.5C1428.6 266.5 1428.53 266.65 1429.5 267.325C1430.4 268 1430.32 268.075 1429.12 267.625C1426.28 266.65 1421.25 266.725 1420.43 267.775C1419.75 268.525 1420.05 268.75 1421.7 268.75C1423.8 268.825 1423.8 268.825 1422.3 269.725L1420.73 270.625L1422.23 276.1L1423.73 281.575L1428.3 281.05C1430.85 280.825 1433.18 280.3 1433.48 280ZM1344.3 276.85C1343.78 275.125 1337.25 267.025 1336.8 267.475C1336.05 268.225 1338.45 273.55 1340.55 275.875C1343.47 278.95 1345.12 279.325 1344.3 276.85ZM160.8 275.875C161.4 273.625 160.575 266.5 159.75 266.5C159.45 266.5 159 267.175 158.775 268C158.55 268.825 158.775 269.5 159.15 269.5C159.6 269.5 159.6 269.95 159 270.625C158.4 271.3 158.25 272.725 158.625 274.75C159.225 278.2 160.125 278.65 160.8 275.875ZM167.925 264.4C168 262.9 167.7 262.075 167.25 262.375C166.875 262.6 166.575 264.775 166.575 267.1C166.65 270.625 166.8 271 167.25 269.125C167.55 267.925 167.85 265.75 167.925 264.4ZM1427.25 265C1426.65 264.55 1426.43 264.25 1426.88 264.25C1427.25 264.25 1427.1 263.8 1426.65 263.35C1425.9 262.6 1425.53 262.6 1425 263.5C1424.47 264.325 1424.78 264.85 1425.98 265.525C1427.85 266.5 1428.9 266.05 1427.25 265ZM1314.9 259.6C1317.45 258.7 1317.53 258.25 1315.2 256.075L1313.48 254.425L1310.32 258.475C1306.28 263.725 1306.12 266.2 1310.02 262.75C1311.52 261.4 1313.7 259.975 1314.9 259.6ZM1326.3 262C1327.58 261.55 1327.57 261.475 1326.38 260.275C1325.7 259.6 1324.35 259 1323.38 259C1322.4 259 1321.05 258.775 1320.3 258.475C1319.25 258.1 1319.1 258.25 1319.62 259.45C1319.93 260.2 1320.22 261.475 1320.3 262.15C1320.3 263.125 1320.82 263.275 1322.62 262.975C1323.82 262.75 1325.47 262.3 1326.3 262ZM1413.38 261.325C1413.53 261.025 1412.7 260.95 1411.43 261.1C1410.22 261.25 1409.25 261.7 1409.25 262C1409.25 262.675 1412.85 262.075 1413.38 261.325ZM1420.8 262.075C1421.03 261.7 1420.5 261.25 1419.6 261.025C1417.73 260.5 1417.12 260.8 1417.88 261.925C1418.47 262.9 1420.28 262.975 1420.8 262.075ZM1414.8 257.35C1414.58 256.975 1413.9 256.825 1413.38 257.05C1412.78 257.275 1412.25 257.05 1412.1 256.6C1411.88 256.075 1411.35 256 1410.82 256.3C1410.15 256.75 1410.3 257.2 1411.65 257.8C1413.52 258.85 1415.55 258.55 1414.8 257.35ZM1326.07 257.2C1325.55 256.6 1323.97 255.925 1322.4 255.625C1320.9 255.4 1318.8 254.95 1317.75 254.725C1315.88 254.275 1315.88 254.275 1317.3 255.85C1318.58 257.275 1320.3 257.8 1325.18 258.1C1326.6 258.25 1326.75 258.025 1326.07 257.2ZM1419.07 257.575C1418.47 257.2 1417.58 257.05 1416.98 257.275C1415.4 257.875 1415.85 258.25 1418.1 258.25C1419.6 258.25 1419.82 258.025 1419.07 257.575ZM169.5 253.6C169.5 250.225 168.75 247.675 167.925 248.2C167.55 248.425 167.25 250.225 167.25 252.325C167.25 255.1 167.55 256 168.375 256C169.125 256 169.5 255.25 169.5 253.6ZM1295.62 234.85C1295.62 230.2 1295.32 228.625 1294.5 228.4C1293.9 228.175 1292.92 227.5 1292.4 226.825C1291.57 225.85 1291.5 226.375 1291.88 230.2C1292.1 233.05 1291.95 235.525 1291.43 236.725C1290.22 239.35 1291.05 241 1293.6 241H1295.7L1295.62 234.85ZM110.025 233.35C109.875 232.375 109.725 233.125 109.725 235C109.725 236.875 109.875 237.625 110.025 236.725C110.175 235.75 110.175 234.25 110.025 233.35ZM299.25 237.1C299.25 236.575 299.4 234.775 299.625 233.125L300 230.125L298.5 233.125C296.7 236.725 296.625 238 298.125 238C298.725 238 299.25 237.55 299.25 237.1ZM309.45 233.725L308.7 230.125L308.025 233.425C307.5 235.9 307.65 236.875 308.325 237.325C310.05 238.375 310.35 237.4 309.45 233.725ZM1294.2 223.975C1294.05 223.225 1293.6 220 1293.3 216.85C1292.93 211.975 1292.62 211 1291.5 211C1289.55 211 1288.12 213.025 1289.18 214.3C1289.62 214.825 1290.22 217.525 1290.52 220.3C1290.9 224.875 1291.12 225.25 1292.77 225.25C1294.12 225.25 1294.5 224.95 1294.2 223.975ZM424.35 219.925C424.5 217.75 424.875 215.725 425.325 215.5C425.7 215.2 425.55 214.45 425.025 213.625C423.225 211.225 422.25 213.025 422.25 218.95C422.25 223.15 422.475 224.575 423.225 224.35C423.75 224.125 424.2 222.325 424.35 219.925ZM973.725 215.875C973.2 214.975 972.825 215.2 971.775 217C970.65 218.875 970.575 219.25 971.55 219.25C972.15 219.25 972.9 220.3 973.275 221.725C973.875 224.05 973.875 224.05 974.1 220.6C974.25 218.65 974.025 216.475 973.725 215.875ZM976.125 211.9C975.9 211.6 975.375 211.9 975 212.5C974.55 213.175 974.625 213.925 975 214.3C975.45 214.75 975.825 217.075 975.9 219.625C976.05 223.675 976.05 223.525 976.275 218.2C976.425 214.975 976.35 212.125 976.125 211.9ZM1233.15 220.75C1233 219.1 1232.62 217.75 1232.32 217.75C1232.03 217.75 1231.95 216.25 1232.02 214.375C1232.17 211.525 1232.03 211 1230.82 211C1228.42 211 1227.6 212.8 1228.88 215.2C1229.47 216.4 1230 218.65 1230 220.15C1230 222.625 1230.68 223.525 1232.62 223.675C1233.07 223.75 1233.3 222.475 1233.15 220.75ZM435.9 218.275C435.45 216.4 434.25 218.125 434.25 220.675C434.25 222.4 434.325 222.475 435.3 221.125C435.825 220.375 436.125 219.1 435.9 218.275ZM783 219.175C783 218.425 782.7 217.75 782.25 217.75C781.875 217.75 781.5 218.65 781.5 219.7C781.5 220.75 781.8 221.425 782.25 221.125C782.7 220.9 783 220 783 219.175ZM382.575 214.225L381.375 209.125L381.15 213.925C381 217.225 381.225 218.95 381.9 219.325C383.625 220.45 383.775 219.25 382.575 214.225ZM371.55 216.475C372.525 210.475 372 209.725 370.125 214.3C367.875 219.625 367.95 219.25 369.675 219.25C370.725 219.25 371.175 218.5 371.55 216.475ZM1134.3 210.85C1133.7 206.425 1132.88 205.075 1131.68 206.275C1130.93 207.025 1130.93 207.925 1131.68 210.4C1132.58 213.175 1133.85 215.125 1134.52 214.45C1134.67 214.375 1134.53 212.725 1134.3 210.85ZM618.75 210.625C619.35 210.1 621.6 209.425 623.625 209.125C625.725 208.825 627.825 208.225 628.275 207.85C629.775 206.65 631.35 207.7 631.875 210.175C632.175 211.45 632.55 212.5 632.7 212.5C632.85 212.5 634.35 211.675 636.075 210.625C637.725 209.575 639.45 208.9 639.825 209.2C640.425 209.5 640.5 208.975 640.275 207.55C640.05 206.35 639.675 203.725 639.375 201.625C639.15 199.6 638.55 196.375 638.025 194.575L637.125 191.275L627.975 191.725C619.35 192.1 618.6 192.25 616.125 194.275L613.5 196.375V202.75C613.5 211.075 613.95 212.725 616.05 212.05C616.875 211.825 618.15 211.15 618.75 210.625ZM690.75 201.25C690.75 200.05 690.45 199 690 199C689.175 199 688.95 202.225 689.775 202.975C690.6 203.875 690.75 203.575 690.75 201.25ZM1128 197.2C1128 192.325 1127.55 193 1126.95 198.625C1126.72 201.625 1126.8 202.75 1127.25 202C1127.62 201.4 1128 199.225 1128 197.2ZM684.6 199.45C685.125 196.9 683.475 196.525 682.65 199C681.9 201.1 681.975 201.325 683.1 201.1C683.775 200.95 684.45 200.2 684.6 199.45ZM715.8 195.325C716.025 194.95 715.725 194.425 715.05 194.2C713.475 193.6 710.175 194.5 710.7 195.325C711.225 196.225 715.275 196.225 715.8 195.325ZM641.25 177.325C641.25 173.8 639.825 172.3 637.575 173.5C635.25 174.7 635.325 179.275 637.725 179.725C641.1 180.4 641.25 180.325 641.25 177.325ZM627.75 176.95C627.75 175.6 627.225 174.025 626.625 173.5C625.65 172.75 625.5 172.825 625.5 174.325C625.5 175.3 625.275 176.875 625.05 177.85C624.675 179.2 624.9 179.5 626.175 179.5C627.45 179.5 627.75 179.05 627.75 176.95ZM634.5 176.2C634.5 175.225 633.975 174.025 633.375 173.5C632.4 172.675 632.25 172.975 632.25 175.3C632.25 177.175 632.55 178 633.375 178C634.05 178 634.5 177.325 634.5 176.2ZM564 41.125C564 40.3 563.175 40 560.85 40C557.85 40.075 557.7 40.15 559.05 41.125C561 42.625 564 42.55 564 41.125Z" fill="#0D0D0D" stroke="#0D0D0D"/>
</svg>
